<svg xmlns="http://www.w3.org/2000/svg" viewBox="0 0 640 440" role="img" aria-label="랜딩 화면을 설계한 일러스트"><rect width="640" height="440" fill="#F4DFD4"/><rect x="65" y="73" width="510" height="294" rx="23" fill="#F9F4FA" stroke="#4B305A" stroke-width="5"/><rect x="65" y="73" width="510" height="39" rx="19" fill="#ADD8F0"/><path d="M65 95h510v17H65z" fill="#ADD8F0"/><circle cx="91" cy="93" r="6" fill="#4B305A"/><circle cx="112" cy="93" r="6" fill="#F9F4FA"/><circle cx="133" cy="93" r="6" fill="#F2C5AD"/><rect x="97" y="143" width="55" height="11" rx="5" fill="#4B305A"/><rect x="475" y="145" width="65" height="8" rx="4" fill="#B8CDB9"/><rect x="100" y="204" width="207" height="20" rx="7" fill="#4B305A"/><rect x="100" y="237" width="181" height="12" rx="6" fill="#B8CDB9"/><rect x="100" y="258" width="151" height="12" rx="6" fill="#B8CDB9"/><rect x="100" y="294" width="115" height="38" rx="11" fill="#4B305A"/><rect x="364" y="181" width="169" height="146" rx="16" fill="#B8CDB9"/><path d="M379 300c34-53 47-43 69-65 23-23 40-1 72-40v132H364v-27z" fill="#ADD8F0"/><circle cx="461" cy="221" r="27" fill="#F2C5AD"/><path d="M560 344l35 30-16 15-33-31z" fill="#4B305A"/><circle cx="550" cy="342" r="24" fill="none" stroke="#4B305A" stroke-width="8"/></svg>
